<?xml version="1.0" encoding="utf-8" standalone="no"?>
<!DOCTYPE svg PUBLIC "-//W3C//DTD SVG 1.1//EN"
  "http://www.w3.org/Graphics/SVG/1.1/DTD/svg11.dtd">
<svg xmlns:xlink="http://www.w3.org/1999/xlink" width="288pt" height="144pt" viewBox="0 0 288 144" xmlns="http://www.w3.org/2000/svg" version="1.1">
 <metadata>
  <rdf:RDF xmlns:dc="http://purl.org/dc/elements/1.1/" xmlns:cc="http://creativecommons.org/ns#" xmlns:rdf="http://www.w3.org/1999/02/22-rdf-syntax-ns#">
   <cc:Work>
    <dc:type rdf:resource="http://purl.org/dc/dcmitype/StillImage"/>
    <dc:date>2025-05-18T16:10:38.736859</dc:date>
    <dc:format>image/svg+xml</dc:format>
    <dc:creator>
     <cc:Agent>
      <dc:title>Matplotlib v3.9.4, https://matplotlib.org/</dc:title>
     </cc:Agent>
    </dc:creator>
   </cc:Work>
  </rdf:RDF>
 </metadata>
 <defs>
  <style type="text/css">*{stroke-linejoin: round; stroke-linecap: butt}</style>
 </defs>
 <g id="figure_1">
  <g id="patch_1">
   <path d="M 0 144 
L 288 144 
L 288 0 
L 0 0 
z
" style="fill: #ffffff"/>
  </g>
  <g id="axes_1">
   <g id="patch_2">
    <path d="M 38.27 102.04 
L 277.2 102.04 
L 277.2 10.8 
L 38.27 10.8 
z
" style="fill: #ffffff"/>
   </g>
   <g id="matplotlib.axis_1">
    <g id="xtick_1">
     <g id="line2d_1">
      <path d="M 49.130455 102.04 
L 49.130455 10.8 
" clip-path="url(#p8c0d868b17)" style="fill: none; stroke: #b0b0b0; stroke-width: 0.8; stroke-linecap: square"/>
     </g>
     <g id="line2d_2">
      <defs>
       <path id="m816c965214" d="M 0 0 
L 0 3.5 
" style="stroke: #000000; stroke-width: 0.8"/>
      </defs>
      <g>
       <use xlink:href="#m816c965214" x="49.130455" y="102.04" style="stroke: #000000; stroke-width: 0.8"/>
      </g>
     </g>
     <g id="text_1">
      <text style="font: 10px 'DejaVu Sans', 'Bitstream Vera Sans', 'Computer Modern Sans Serif', 'Lucida Grande', 'Verdana', 'Geneva', 'Lucid', 'Arial', 'Helvetica', 'Avant Garde', sans-serif; text-anchor: middle" x="49.130455" y="116.638437" transform="rotate(-0 49.130455 116.638437)">0</text>
     </g>
    </g>
    <g id="xtick_2">
     <g id="line2d_3">
      <path d="M 92.572273 102.04 
L 92.572273 10.8 
" clip-path="url(#p8c0d868b17)" style="fill: none; stroke: #b0b0b0; stroke-width: 0.8; stroke-linecap: square"/>
     </g>
     <g id="line2d_4">
      <g>
       <use xlink:href="#m816c965214" x="92.572273" y="102.04" style="stroke: #000000; stroke-width: 0.8"/>
      </g>
     </g>
     <g id="text_2">
      <text style="font: 10px 'DejaVu Sans', 'Bitstream Vera Sans', 'Computer Modern Sans Serif', 'Lucida Grande', 'Verdana', 'Geneva', 'Lucid', 'Arial', 'Helvetica', 'Avant Garde', sans-serif; text-anchor: middle" x="92.572273" y="116.638437" transform="rotate(-0 92.572273 116.638437)">2</text>
     </g>
    </g>
    <g id="xtick_3">
     <g id="line2d_5">
      <path d="M 136.014091 102.04 
L 136.014091 10.8 
" clip-path="url(#p8c0d868b17)" style="fill: none; stroke: #b0b0b0; stroke-width: 0.8; stroke-linecap: square"/>
     </g>
     <g id="line2d_6">
      <g>
       <use xlink:href="#m816c965214" x="136.014091" y="102.04" style="stroke: #000000; stroke-width: 0.8"/>
      </g>
     </g>
     <g id="text_3">
      <text style="font: 10px 'DejaVu Sans', 'Bitstream Vera Sans', 'Computer Modern Sans Serif', 'Lucida Grande', 'Verdana', 'Geneva', 'Lucid', 'Arial', 'Helvetica', 'Avant Garde', sans-serif; text-anchor: middle" x="136.014091" y="116.638437" transform="rotate(-0 136.014091 116.638437)">4</text>
     </g>
    </g>
    <g id="xtick_4">
     <g id="line2d_7">
      <path d="M 179.455909 102.04 
L 179.455909 10.8 
" clip-path="url(#p8c0d868b17)" style="fill: none; stroke: #b0b0b0; stroke-width: 0.8; stroke-linecap: square"/>
     </g>
     <g id="line2d_8">
      <g>
       <use xlink:href="#m816c965214" x="179.455909" y="102.04" style="stroke: #000000; stroke-width: 0.8"/>
      </g>
     </g>
     <g id="text_4">
      <text style="font: 10px 'DejaVu Sans', 'Bitstream Vera Sans', 'Computer Modern Sans Serif', 'Lucida Grande', 'Verdana', 'Geneva', 'Lucid', 'Arial', 'Helvetica', 'Avant Garde', sans-serif; text-anchor: middle" x="179.455909" y="116.638437" transform="rotate(-0 179.455909 116.638437)">6</text>
     </g>
    </g>
    <g id="xtick_5">
     <g id="line2d_9">
      <path d="M 222.897727 102.04 
L 222.897727 10.8 
" clip-path="url(#p8c0d868b17)" style="fill: none; stroke: #b0b0b0; stroke-width: 0.8; stroke-linecap: square"/>
     </g>
     <g id="line2d_10">
      <g>
       <use xlink:href="#m816c965214" x="222.897727" y="102.04" style="stroke: #000000; stroke-width: 0.8"/>
      </g>
     </g>
     <g id="text_5">
      <text style="font: 10px 'DejaVu Sans', 'Bitstream Vera Sans', 'Computer Modern Sans Serif', 'Lucida Grande', 'Verdana', 'Geneva', 'Lucid', 'Arial', 'Helvetica', 'Avant Garde', sans-serif; text-anchor: middle" x="222.897727" y="116.638437" transform="rotate(-0 222.897727 116.638437)">8</text>
     </g>
    </g>
    <g id="xtick_6">
     <g id="line2d_11">
      <path d="M 266.339545 102.04 
L 266.339545 10.8 
" clip-path="url(#p8c0d868b17)" style="fill: none; stroke: #b0b0b0; stroke-width: 0.8; stroke-linecap: square"/>
     </g>
     <g id="line2d_12">
      <g>
       <use xlink:href="#m816c965214" x="266.339545" y="102.04" style="stroke: #000000; stroke-width: 0.8"/>
      </g>
     </g>
     <g id="text_6">
      <text style="font: 10px 'DejaVu Sans', 'Bitstream Vera Sans', 'Computer Modern Sans Serif', 'Lucida Grande', 'Verdana', 'Geneva', 'Lucid', 'Arial', 'Helvetica', 'Avant Garde', sans-serif; text-anchor: middle" x="266.339545" y="116.638437" transform="rotate(-0 266.339545 116.638437)">10</text>
     </g>
    </g>
    <g id="text_7">
     <text style="font: 10px 'DejaVu Sans', 'Bitstream Vera Sans', 'Computer Modern Sans Serif', 'Lucida Grande', 'Verdana', 'Geneva', 'Lucid', 'Arial', 'Helvetica', 'Avant Garde', sans-serif; text-anchor: middle" x="157.735" y="130.316563" transform="rotate(-0 157.735 130.316563)">Time t</text>
    </g>
   </g>
   <g id="matplotlib.axis_2">
    <g id="ytick_1">
     <g id="line2d_13">
      <path d="M 38.27 97.892727 
L 277.2 97.892727 
" clip-path="url(#p8c0d868b17)" style="fill: none; stroke: #b0b0b0; stroke-width: 0.8; stroke-linecap: square"/>
     </g>
     <g id="line2d_14">
      <defs>
       <path id="m368169b7cd" d="M 0 0 
L -3.5 0 
" style="stroke: #000000; stroke-width: 0.8"/>
      </defs>
      <g>
       <use xlink:href="#m368169b7cd" x="38.27" y="97.892727" style="stroke: #000000; stroke-width: 0.8"/>
      </g>
     </g>
     <g id="text_8">
      <text style="font: 10px 'DejaVu Sans', 'Bitstream Vera Sans', 'Computer Modern Sans Serif', 'Lucida Grande', 'Verdana', 'Geneva', 'Lucid', 'Arial', 'Helvetica', 'Avant Garde', sans-serif; text-anchor: end" x="31.27" y="101.691946" transform="rotate(-0 31.27 101.691946)">0</text>
     </g>
    </g>
    <g id="ytick_2">
     <g id="line2d_15">
      <path d="M 38.27 56.301709 
L 277.2 56.301709 
" clip-path="url(#p8c0d868b17)" style="fill: none; stroke: #b0b0b0; stroke-width: 0.8; stroke-linecap: square"/>
     </g>
     <g id="line2d_16">
      <g>
       <use xlink:href="#m368169b7cd" x="38.27" y="56.301709" style="stroke: #000000; stroke-width: 0.8"/>
      </g>
     </g>
     <g id="text_9">
      <text style="font: 10px 'DejaVu Sans', 'Bitstream Vera Sans', 'Computer Modern Sans Serif', 'Lucida Grande', 'Verdana', 'Geneva', 'Lucid', 'Arial', 'Helvetica', 'Avant Garde', sans-serif; text-anchor: end" x="31.27" y="60.100928" transform="rotate(-0 31.27 60.100928)">2</text>
     </g>
    </g>
    <g id="ytick_3">
     <g id="line2d_17">
      <path d="M 38.27 14.710691 
L 277.2 14.710691 
" clip-path="url(#p8c0d868b17)" style="fill: none; stroke: #b0b0b0; stroke-width: 0.8; stroke-linecap: square"/>
     </g>
     <g id="line2d_18">
      <g>
       <use xlink:href="#m368169b7cd" x="38.27" y="14.710691" style="stroke: #000000; stroke-width: 0.8"/>
      </g>
     </g>
     <g id="text_10">
      <text style="font: 10px 'DejaVu Sans', 'Bitstream Vera Sans', 'Computer Modern Sans Serif', 'Lucida Grande', 'Verdana', 'Geneva', 'Lucid', 'Arial', 'Helvetica', 'Avant Garde', sans-serif; text-anchor: end" x="31.27" y="18.509909" transform="rotate(-0 31.27 18.509909)">4</text>
     </g>
    </g>
    <g id="text_11">
     <text style="font: 10px 'DejaVu Sans', 'Bitstream Vera Sans', 'Computer Modern Sans Serif', 'Lucida Grande', 'Verdana', 'Geneva', 'Lucid', 'Arial', 'Helvetica', 'Avant Garde', sans-serif; text-anchor: middle" x="18.827813" y="56.42" transform="rotate(-90 18.827813 56.42)">h(u)</text>
    </g>
   </g>
   <g id="line2d_19">
    <path d="M 49.130455 97.892727 
L 106.313629 97.795388 
L 106.965908 97.6123 
L 107.400761 97.352697 
L 107.835614 96.893627 
L 108.270467 96.116931 
L 108.70532 94.860435 
L 109.140173 92.91831 
L 109.575026 90.052893 
L 110.009879 86.022339 
L 110.662159 77.378051 
L 111.314439 65.496114 
L 113.488704 20.430029 
L 113.923557 16.123198 
L 114.140983 15.134063 
L 114.35841 14.968048 
L 114.575836 15.630117 
L 114.793263 17.10051 
L 115.228116 22.270637 
L 115.880395 34.369862 
L 117.837234 75.975505 
L 118.489514 85.057377 
L 119.141793 91.024176 
L 119.794073 94.534131 
L 120.228926 95.910008 
L 120.663779 96.76823 
L 121.098632 97.280026 
L 121.750911 97.664143 
L 122.620617 97.839371 
L 124.577456 97.891603 
L 181.543204 97.892727 
L 193.066809 97.814802 
L 193.936515 97.572003 
L 194.371368 97.280026 
L 194.806221 96.76823 
L 195.241074 95.910008 
L 195.675927 94.534131 
L 196.11078 92.427003 
L 196.545633 89.347355 
L 197.197913 82.396762 
L 197.850192 72.215893 
L 198.719899 54.135587 
L 200.024458 25.821687 
L 200.459311 19.335721 
L 200.894164 15.630117 
L 201.11159 14.968048 
L 201.329017 15.134063 
L 201.546443 16.123198 
L 201.981296 20.430029 
L 202.633576 31.639509 
L 205.025268 80.625747 
L 205.677547 88.197417 
L 206.329827 92.91831 
L 206.76468 94.860435 
L 207.199533 96.116931 
L 207.634386 96.893627 
L 208.069239 97.352697 
L 208.721518 97.693663 
L 209.591224 97.847 
L 211.76549 97.89199 
L 214.809461 97.811838 
L 215.679167 97.561137 
L 216.11402 97.260537 
L 216.548873 96.734785 
L 216.983726 95.855124 
L 217.418579 94.448073 
L 217.853432 92.298176 
L 218.288285 89.163451 
L 218.940565 82.110787 
L 219.592844 71.820524 
L 220.46255 53.639543 
L 221.767109 25.441558 
L 222.201962 19.079482 
L 222.636815 15.527018 
L 222.854242 14.947273 
L 223.071668 15.196233 
L 223.289095 16.266455 
L 223.723948 20.720549 
L 224.376228 32.086102 
L 226.767919 80.930135 
L 227.420199 88.396917 
L 228.072478 93.035291 
L 228.507331 94.937672 
L 228.942184 96.165627 
L 229.377037 96.922971 
L 230.029317 97.514247 
L 230.681597 97.75775 
L 231.768729 97.872916 
L 235.899833 97.892726 
L 266.339545 97.892727 
L 266.339545 97.892727 
" clip-path="url(#p8c0d868b17)" style="fill: none; stroke: #1f77b4; stroke-width: 1.5; stroke-linecap: square"/>
   </g>
   <g id="patch_3">
    <path d="M 38.27 102.04 
L 38.27 10.8 
" style="fill: none; stroke: #000000; stroke-width: 0.8; stroke-linejoin: miter; stroke-linecap: square"/>
   </g>
   <g id="patch_4">
    <path d="M 277.2 102.04 
L 277.2 10.8 
" style="fill: none; stroke: #000000; stroke-width: 0.8; stroke-linejoin: miter; stroke-linecap: square"/>
   </g>
   <g id="patch_5">
    <path d="M 38.27 102.04 
L 277.2 102.04 
" style="fill: none; stroke: #000000; stroke-width: 0.8; stroke-linejoin: miter; stroke-linecap: square"/>
   </g>
   <g id="patch_6">
    <path d="M 38.27 10.8 
L 277.2 10.8 
" style="fill: none; stroke: #000000; stroke-width: 0.8; stroke-linejoin: miter; stroke-linecap: square"/>
   </g>
  </g>
 </g>
 <defs>
  <clipPath id="p8c0d868b17">
   <rect x="38.27" y="10.8" width="238.93" height="91.24"/>
  </clipPath>
 </defs>
</svg>
