<?xml version="1.0" encoding="utf-8"?>
<!-- Generator: Adobe Illustrator 26.3.1, SVG Export Plug-In . SVG Version: 6.00 Build 0)  -->
<svg version="1.1" xmlns="http://www.w3.org/2000/svg" xmlns:xlink="http://www.w3.org/1999/xlink" x="0px" y="0px"
	 viewBox="0 0 600.1 147.1" style="enable-background:new 0 0 600.1 147.1;" xml:space="preserve">
<style type="text/css">
	.st0{fill:#E52920;}
</style>
<g id="Ebene_1">
	<g>
		<path class="st0" d="M364.4,35.8c0.1-1.3-0.3-1.9-1.5-1.9h-9c-1.1,0-2.1,0.9-2.1,2.1c0,1.1,1,2.1,2.1,2.1h4.8
			c-1.1,2.6-3.2,3.9-6,3.9c-4.1,0-7.3-3.3-7.3-7.4c0-4.1,3.2-7.4,7.3-7.4c1.6,0,3.1,0.5,4.3,1.3c0.9,0.6,2.2,0.6,3.1-0.2
			c1-0.9,1.1-2.9,0.2-3.6c-2-1.6-4.6-2.5-7.6-2.5c-7,0-12.4,5.6-12.4,12.4c0,6.8,5.4,12.4,12.4,12.4
			C359.1,46.9,363.6,43.5,364.4,35.8 M337.4,30.2c-0.1-3.9-2.6-7.8-8-7.8h-7.4c-1.5,0-2.4,1.2-2.5,2.6v19.4c0,1.3,1.2,2.4,2.6,2.4
			c1.4,0,2.6-1.1,2.6-2.4V38h2.4l4.6,7.7c0.7,1.1,2.2,1.4,3.3,0.7c1.2-0.7,1.6-2.3,0.9-3.3l-3.9-5.7
			C335.5,36.3,337.2,33.3,337.4,30.2 M329.3,26.9c1.9,0,2.9,1.9,2.9,3.4c0,1.6-1.1,3.4-3.1,3.4h-4.6v-6.8H329.3z M304.8,46.9
			c5,0,9.4-3.5,9.4-9V24.6c0-1.3-1.2-2.4-2.6-2.4c-1.4,0-2.6,1.1-2.6,2.4v13.3c0,2.5-2.1,4.1-4.2,4.1c-2.2,0-4.3-1.7-4.3-4.1V24.6
			c0-1.3-1.2-2.4-2.6-2.4c-1.3,0-2.5,1.1-2.6,2.4v13.3C295.4,43.4,299.8,46.9,304.8,46.9L304.8,46.9z M283.3,36.1
			c1.8,0,2.7,1.5,2.7,2.9c0,1.4-0.9,3-2.6,3h-5v-5.9H283.3z M278.4,32v-5.1h4c1.5,0,2.3,1.1,2.3,2.6c0,1.4-0.9,2.6-2.2,2.6H278.4z
			 M283.7,46.6c4.8,0,7.7-3.4,7.7-7.4c0-2-1.4-4.7-4.6-5.5c2.5-0.9,3.3-2.9,3.3-4.5c0-4.1-2.8-6.7-7.2-6.7h-7.7c-1.3,0-2,1-2,2.2
			v19.8c0,1.2,0.7,2.2,2,2.2H283.7z M244.5,34.5c0,6.8,5.4,12.4,12.3,12.4c6.9,0,12.3-5.6,12.3-12.4c0-6.9-5.4-12.4-12.3-12.4
			C249.9,22.1,244.5,27.6,244.5,34.5 M249.6,34.5c0-4,3-7.4,7.1-7.4s7.2,3.4,7.2,7.4s-3.1,7.4-7.2,7.4S249.6,38.6,249.6,34.5
			 M221,34.5c0,6.9,5.2,12.4,12.2,12.4c3.4,0,6.4-1.3,8.6-3.3c0.9-0.8,0.7-2.6-0.3-3.5c-1-0.8-2.4-0.8-3.3,0c-1.3,1.2-3,1.9-5,1.9
			c-4,0-7-3.3-7-7.4s3-7.4,7-7.4c2,0,3.7,0.7,5,1.9c0.9,0.8,2.3,0.8,3.3,0c1-0.9,1.2-2.7,0.3-3.5c-2.1-2.1-5.1-3.3-8.6-3.3
			C226.2,22.1,221,27.6,221,34.5"/>
		<path class="st0" d="M154.6,102.8c-16.1,0-29.3-13.1-29.3-29.3c0-16.1,13.1-29.3,29.3-29.3s29.3,13.1,29.3,29.3
			C183.9,89.7,170.7,102.8,154.6,102.8 M154.6,22.1c-28.4,0-51.5,23.1-51.5,51.5H103c0,16.1-13.1,29.3-29.3,29.3
			S44.5,89.7,44.5,73.6c0-16.1,13.1-29.3,29.3-29.3h1.4c6.1,0,11.1-5,11.1-11.1c0-6.1-5-11.1-11.1-11.1h-3.3c-0.5,0-1,0-1.5,0.1
			C43.5,24,22.3,46.3,22.3,73.6c0,28.4,23.1,51.5,51.5,51.5c16.4,0,31-7.7,40.4-19.6c9.4,11.9,24,19.6,40.4,19.6
			c28.4,0,51.5-23.1,51.5-51.5S183,22.1,154.6,22.1"/>
		<path class="st0" d="M567.7,115.8c0.7,1.9,2.8,3,4.8,3c3,0,5.3-1.4,5.3-4c0-1.3-0.6-3.2-3.5-3.9l-2-0.5c-0.7-0.2-1.5-0.5-1.7-1
			c-0.1-0.4-0.1-0.8,0.1-1.1c0.3-0.5,1.1-0.7,1.8-0.7c0.7,0,1.5,0.3,2.3,0.9c0.6,0.5,1.2,0.6,1.7,0.2c0.5-0.3,0.7-1,0.3-1.7
			c-0.9-1.4-2.5-2-4.3-2c-2.4,0-4.6,1.5-4.7,3.5c-0.2,2.1,0.9,3.7,3.7,4.4l1.8,0.4c1,0.2,1.8,0.6,1.8,1.4c0,1-1,1.6-2.3,1.6
			c-1.3,0-2.3-0.6-2.9-1.6c-0.2-0.5-0.8-0.9-1.5-0.6C567.8,114.4,567.5,115.1,567.7,115.8 M560.1,117.1c0,0.8,0.6,1.5,1.4,1.5
			c0.8,0,1.5-0.7,1.5-1.5v-9.5h1.7c0.7,0,1.2-0.5,1.2-1.2c0-0.7-0.6-1.2-1.2-1.2h-1.7v-3.7c0-0.8-0.7-1.5-1.5-1.5
			c-0.8,0-1.4,0.7-1.4,1.5v3.7h-1.3c-0.7,0-1.2,0.5-1.2,1.2c0,0.7,0.6,1.2,1.2,1.2h1.3V117.1z M554.5,107.7c0.9,0,2.1,0.3,2.4-1
			c0.2-0.8-0.3-1.5-1-1.7c-0.4-0.1-0.8-0.1-1.2-0.1c-1.6,0-2.9,1-3.6,3.3v-1.7c0-0.8-0.7-1.5-1.5-1.5c-0.8,0-1.4,0.7-1.4,1.5v10.6
			c0,0.8,0.6,1.5,1.4,1.5c0.9,0,1.5-0.7,1.5-1.5v-3.4C550.9,110.2,552,107.7,554.5,107.7 M533,111.8c0-2.4,1.8-4,4.1-4
			c2,0,4.1,1.4,4.1,4s-1.9,4.1-4.1,4.1C534.9,115.9,533,114.3,533,111.8 M541.2,117.1c0,0.8,0.6,1.5,1.4,1.5c0.9,0,1.5-0.7,1.5-1.5
			v-10.6c0-0.8-0.7-1.5-1.5-1.5c-0.8,0-1.4,0.7-1.4,1.5v0.5c-0.9-1.5-2.9-2.2-4.5-2.2c-3.6,0-6.7,2.7-6.7,6.9s3.1,6.9,6.7,6.9
			c1.6,0,3.6-0.7,4.5-2.2V117.1z M516.7,107.1c-0.8-1.4-2.6-2.2-4.5-2.2c-3.6,0-6.6,2.7-6.6,6.9c0,4.2,3.1,6.9,6.6,6.9
			c1.8,0,3.6-0.8,4.4-2.2v0.6c0,0.8,0.7,1.5,1.5,1.5c0.8,0,1.4-0.7,1.4-1.5V99.4c0-0.8-0.6-1.5-1.4-1.5c-0.9,0-1.5,0.7-1.5,1.5
			V107.1z M516.6,111.8c0,2.6-1.9,4.1-4.1,4.1c-2.2,0-4-1.7-4-4.1s1.8-4,4-4C514.6,107.8,516.6,109.2,516.6,111.8 M490.5,117.1
			c0,0.8,0.6,1.5,1.4,1.5c0.9,0,1.5-0.7,1.5-1.5v-5.8c0-2.6,1.7-3.5,3.4-3.5c1.7,0,2.8,1.2,2.8,3.3v6c0,0.8,0.6,1.5,1.4,1.5
			c0.9,0,1.5-0.7,1.5-1.5v-6.4c0-3.7-1.8-5.8-5-5.8c-1.5,0-3.3,0.7-4.1,2.3v-0.7c0-0.8-0.6-1.5-1.4-1.5c-0.9,0-1.5,0.7-1.5,1.5
			V117.1z M475.5,111.8c0-2.4,1.8-4,4.1-4c2,0,4.1,1.4,4.1,4s-1.9,4.1-4.1,4.1C477.3,115.9,475.5,114.3,475.5,111.8 M483.7,117.1
			c0,0.8,0.6,1.5,1.4,1.5c0.8,0,1.5-0.7,1.5-1.5v-10.6c0-0.8-0.7-1.5-1.5-1.5c-0.8,0-1.4,0.7-1.4,1.5v0.5c-0.9-1.5-2.9-2.2-4.5-2.2
			c-3.6,0-6.7,2.7-6.7,6.9s3.1,6.9,6.7,6.9c1.6,0,3.6-0.7,4.5-2.2V117.1z M452.9,115.8c0.7,1.9,2.8,3,4.8,3c3,0,5.3-1.4,5.3-4
			c0-1.3-0.6-3.2-3.5-3.9l-2-0.5c-0.7-0.2-1.5-0.5-1.7-1c-0.1-0.4-0.1-0.8,0.1-1.1c0.3-0.5,1.1-0.7,1.8-0.7c0.7,0,1.5,0.3,2.3,0.9
			c0.6,0.5,1.2,0.6,1.7,0.2c0.5-0.3,0.7-1,0.3-1.7c-0.9-1.4-2.5-2-4.2-2c-2.4,0-4.6,1.5-4.7,3.5c-0.2,2.1,0.9,3.7,3.7,4.4l1.8,0.4
			c1,0.2,1.8,0.6,1.8,1.4c0,1-1,1.6-2.3,1.6c-1.3,0-2.3-0.6-2.9-1.6c-0.2-0.5-0.8-0.9-1.5-0.6C453,114.4,452.7,115.1,452.9,115.8
			 M450.6,111.6c-0.1-4.1-2.9-6.6-6.6-6.6c-3.8,0-6.8,2.7-6.8,6.9s3,6.9,6.8,6.9c2,0,3.9-0.7,5.2-2.1c0.5-0.5,0.5-1.4-0.1-1.8
			c-0.6-0.5-1.4-0.3-1.9,0.1c-1,0.8-1.8,1.3-3.1,1.3c-2.1,0-3.8-1.3-4.1-3.3h9.2C450,112.9,450.6,112.3,450.6,111.6 M440.1,110.8
			c0.3-2,1.9-3.3,3.9-3.3c2,0,3.5,1.2,3.8,3.3H440.1z M423.4,111.9c0,4.2,3.3,6.9,7.1,6.9c1.5,0,2.9-0.4,4.1-1.2
			c0.6-0.4,0.8-1.2,0.3-2c-0.4-0.7-1.4-0.7-2-0.3c-0.7,0.4-1.5,0.7-2.4,0.7c-2.2,0-4.2-1.6-4.2-4.1c0-2.5,2-4.1,4.2-4.1
			c0.9,0,1.7,0.3,2.4,0.7c0.6,0.4,1.6,0.3,2-0.3c0.4-0.7,0.3-1.5-0.3-2c-1.1-0.8-2.5-1.2-4.1-1.2C426.6,105,423.4,107.7,423.4,111.9
			 M408.3,117.1c0,0.8,0.6,1.5,1.4,1.5c0.9,0,1.5-0.7,1.5-1.5v-5.8c0-2.6,1.7-3.5,3.4-3.5c1.7,0,2.8,1.2,2.8,3.3v6
			c0,0.8,0.6,1.5,1.4,1.5c0.9,0,1.5-0.7,1.5-1.5v-6.4c0-3.7-1.8-5.8-5-5.8c-1.5,0-3.3,0.7-4.1,2.3v-0.7c0-0.8-0.6-1.5-1.4-1.5
			c-0.9,0-1.5,0.7-1.5,1.5V117.1z M405.4,111.6c-0.1-4.1-2.9-6.6-6.6-6.6c-3.8,0-6.8,2.7-6.8,6.9s3,6.9,6.8,6.9c2,0,3.9-0.7,5.2-2.1
			c0.5-0.5,0.5-1.4-0.1-1.8c-0.6-0.5-1.4-0.3-1.9,0.1c-1,0.8-1.8,1.3-3.1,1.3c-2.1,0-3.8-1.3-4.1-3.3h9.2
			C404.8,112.9,405.4,112.3,405.4,111.6 M394.9,110.8c0.3-2,1.9-3.3,3.9-3.3c2,0,3.5,1.2,3.8,3.3H394.9z M388.8,117.1
			c0,0.8-0.7,1.5-1.5,1.5c-0.8,0-1.4-0.7-1.4-1.5v-10.6c0-0.8,0.6-1.5,1.4-1.5c0.9,0,1.5,0.7,1.5,1.5V117.1z M385.4,99.9
			c0,1,0.9,1.8,2,1.8c1.1,0,1.9-0.8,1.9-1.8c0-1-0.9-1.8-1.9-1.8C386.3,98,385.4,98.8,385.4,99.9 M371.1,111.9
			c0,4.2,3.3,6.9,7.1,6.9c1.5,0,2.9-0.4,4.1-1.2c0.6-0.4,0.8-1.2,0.3-2c-0.4-0.7-1.4-0.7-2-0.3c-0.7,0.4-1.5,0.7-2.4,0.7
			c-2.2,0-4.2-1.6-4.2-4.1c0-2.5,2-4.1,4.2-4.1c0.9,0,1.7,0.3,2.4,0.7c0.6,0.4,1.6,0.3,2-0.3c0.4-0.7,0.3-1.5-0.3-2
			c-1.1-0.8-2.5-1.2-4.1-1.2C374.4,105,371.1,107.7,371.1,111.9 M358.8,115.8c0.7,1.9,2.8,3,4.8,3c3,0,5.3-1.4,5.3-4
			c0-1.3-0.6-3.2-3.5-3.9l-2-0.5c-0.7-0.2-1.5-0.5-1.7-1c-0.1-0.4-0.1-0.8,0.1-1.1c0.3-0.5,1.1-0.7,1.8-0.7c0.7,0,1.5,0.3,2.3,0.9
			c0.6,0.5,1.2,0.6,1.7,0.2c0.5-0.3,0.7-1,0.3-1.7c-0.9-1.4-2.5-2-4.3-2c-2.4,0-4.6,1.5-4.7,3.5c-0.2,2.1,0.9,3.7,3.7,4.4l1.8,0.4
			c1,0.2,1.8,0.6,1.8,1.4c0,1-1,1.6-2.3,1.6c-1.3,0-2.3-0.6-2.9-1.6c-0.2-0.5-0.8-0.9-1.5-0.6C358.8,114.4,358.5,115.1,358.8,115.8
			 M345.3,107.1c-0.8-1.4-2.6-2.2-4.5-2.2c-3.6,0-6.6,2.7-6.6,6.9c0,4.2,3.1,6.9,6.6,6.9c1.8,0,3.6-0.8,4.4-2.2v0.6
			c0,0.8,0.7,1.5,1.5,1.5c0.8,0,1.4-0.7,1.4-1.5V99.4c0-0.8-0.6-1.5-1.4-1.5c-0.9,0-1.5,0.7-1.5,1.5V107.1z M345.3,111.8
			c0,2.6-1.9,4.1-4.1,4.1c-2.2,0-4-1.7-4-4.1s1.8-4,4-4C343.2,107.8,345.3,109.2,345.3,111.8 M332.1,111.6c-0.1-4.1-2.9-6.6-6.6-6.6
			c-3.8,0-6.8,2.7-6.8,6.9s3,6.9,6.8,6.9c2,0,3.9-0.7,5.2-2.1c0.5-0.5,0.5-1.4-0.1-1.8c-0.6-0.5-1.4-0.3-1.9,0.1
			c-1,0.8-1.8,1.3-3.1,1.3c-2.1,0-3.8-1.3-4.1-3.3h9.2C331.4,112.9,332.1,112.3,332.1,111.6 M321.5,110.8c0.3-2,1.9-3.3,3.9-3.3
			c2,0,3.5,1.2,3.8,3.3H321.5z M315.4,117.1c0,0.8-0.7,1.5-1.5,1.5c-0.8,0-1.4-0.7-1.4-1.5v-10.6c0-0.8,0.6-1.5,1.4-1.5
			c0.9,0,1.5,0.7,1.5,1.5V117.1z M312,99.9c0,1,0.9,1.8,2,1.8c1.1,0,1.9-0.8,1.9-1.8c0-1-0.9-1.8-1.9-1.8
			C312.9,98,312,98.8,312,99.9 M308.6,99.4c0-0.8-0.7-1.5-1.5-1.5c-0.8,0-1.4,0.7-1.4,1.5v17.8c0,0.8,0.6,1.5,1.4,1.5
			c0.9,0,1.5-0.7,1.5-1.5V99.4z M291.4,111.9c0-2.6,1.9-4.1,4-4.1c2.2,0,4,1.7,4,4.1c0,2.4-1.8,4-4,4
			C293.4,116,291.4,114.5,291.4,111.9 M291.4,106.6c0-0.8-0.7-1.5-1.5-1.5c-0.8,0-1.4,0.7-1.4,1.5v17c0,0.8,0.6,1.5,1.4,1.5
			c0.9,0,1.5-0.7,1.5-1.5v-7c0.8,1.5,2.6,2.2,4.4,2.2c3.6,0,6.6-2.7,6.6-6.9c0-4.2-3-6.9-6.6-6.9c-1.8,0-3.6,0.8-4.4,2.2V106.6z
			 M274.2,111.9c0-2.6,1.9-4.1,4-4.1c2.2,0,4,1.7,4,4.1c0,2.4-1.8,4-4,4C276.2,116,274.2,114.5,274.2,111.9 M274.2,106.6
			c0-0.8-0.7-1.5-1.5-1.5c-0.8,0-1.4,0.7-1.4,1.5v17c0,0.8,0.6,1.5,1.4,1.5c0.9,0,1.5-0.7,1.5-1.5v-7c0.8,1.5,2.6,2.2,4.4,2.2
			c3.6,0,6.6-2.7,6.6-6.9c0-4.2-3-6.9-6.6-6.9c-1.8,0-3.6,0.8-4.4,2.2V106.6z M256.2,111.8c0-2.4,1.8-4,4.1-4c2,0,4.1,1.4,4.1,4
			s-1.9,4.1-4.1,4.1C258.1,115.9,256.2,114.3,256.2,111.8 M264.4,117.1c0,0.8,0.6,1.5,1.4,1.5c0.9,0,1.5-0.7,1.5-1.5v-10.6
			c0-0.8-0.7-1.5-1.5-1.5c-0.8,0-1.4,0.7-1.4,1.5v0.5c-0.9-1.5-2.9-2.2-4.5-2.2c-3.6,0-6.7,2.7-6.7,6.9s3.1,6.9,6.7,6.9
			c1.6,0,3.6-0.7,4.5-2.2V117.1z M243.7,107.7c0.7,0,1.2-0.5,1.2-1.2c0-0.7-0.6-1.2-1.2-1.2h-1.9V104c0-1.7,0.4-3.2,2.4-3.2h0.2
			c0.8,0,1.4-0.6,1.4-1.4c0-0.8-0.7-1.4-1.4-1.4h-0.2c-3.6,0-5.3,2.4-5.3,6v1.2h-1.5c-0.7,0-1.2,0.5-1.2,1.2c0,0.7,0.6,1.2,1.2,1.2
			h1.5v9.5c0,0.8,0.7,1.5,1.5,1.5c0.8,0,1.4-0.7,1.4-1.5v-9.5H243.7z M227.8,118.8c3.8,0,6.9-2.7,6.9-6.9s-3.2-6.9-6.9-6.9
			c-3.7,0-6.9,2.7-6.9,6.9S224.1,118.8,227.8,118.8 M227.8,115.9c-2.2,0-4-1.6-4-4.1c0-2.4,1.8-4,4-4c2.2,0,4.1,1.6,4.1,4
			C231.9,114.3,230,115.9,227.8,115.9"/>
	</g>
	<g>
		<path class="st0" d="M221.4,71.9V57.5c0-1,0.8-1.9,1.8-1.9c1.1,0,2,0.9,2,1.9v14.3c0,3.2,2.5,5.2,5.4,5.2c2.8,0,5.4-2.1,5.4-5.2
			V57.5c0-1,0.9-1.9,2-1.9c1,0,1.8,0.9,1.8,1.9v14.3c0,5.4-4.2,8.9-9.1,8.9C225.6,80.7,221.4,77.2,221.4,71.9z"/>
		<path class="st0" d="M263.6,78.8c0,1-0.8,1.8-1.8,1.8h-0.5c-0.9,0-1.3-0.3-1.8-1.1l-10-16.7v15.8c0,1-0.9,1.9-2,1.9
			c-1,0-1.8-0.9-1.8-1.9V57.4c0-1,0.8-1.8,1.8-1.8h0.5c0.9,0,1.4,0.3,1.9,1.1l9.9,16.6V57.5c0-1,0.8-1.9,1.8-1.9c1.1,0,2,0.9,2,1.9
			V78.8z"/>
		<path class="st0" d="M273.7,78.6c0,1-0.9,1.9-2,1.9c-1,0-1.8-0.9-1.8-1.9V57.5c0-1,0.8-1.9,1.8-1.9c1.1,0,2,0.9,2,1.9V78.6z"/>
		<path class="st0" d="M286.4,80.6c-1.1,0-1.8-0.6-2-1.5l-6.4-21c-0.3-1,0.2-2.1,1.2-2.4c1.2-0.3,2.1,0.4,2.4,1.4l4.9,17l4.9-17
			c0.2-1,1.1-1.7,2.4-1.4c1.1,0.2,1.5,1.4,1.2,2.4l-6.4,21c-0.2,0.9-0.9,1.5-2,1.5H286.4z"/>
		<path class="st0" d="M301.4,80.4c-1.1,0-2-0.8-2-2.1V57.9c0-1.3,0.9-2.1,2-2.1h11.2c1,0,1.7,0.8,1.7,1.8c0,1-0.8,1.7-1.7,1.7h-9.5
			v7.3h8.1c0.9,0,1.7,0.8,1.7,1.8c0,0.9-0.8,1.7-1.7,1.7h-8.1v6.9h9.8c1,0,1.7,0.8,1.7,1.8c0,1-0.8,1.7-1.7,1.7H301.4z"/>
		<path class="st0" d="M334.5,77.5c0.6,0.8,0.5,2.2-0.4,2.7c-0.8,0.5-2,0.4-2.6-0.5l-5.6-8.4h-2.8v7.3c0,1-0.9,1.9-2,1.9
			c-1,0-1.8-0.9-1.8-1.9V57.9c0-1.3,0.9-2.1,2-2.1h7.6c5.3,0,7.5,3.9,7.5,7.8c0,3.6-1.8,7.1-6.4,7.6L334.5,77.5z M323.1,59.3v8.6
			h5.5c2.7,0,3.9-2.2,3.9-4.3c0-2.1-1.1-4.3-3.7-4.3H323.1z"/>
		<path class="st0" d="M341.2,73.1c1-0.3,2,0.1,2.5,1.2c0.8,1.6,2,3,4.7,3c2.9,0,4.4-1.6,4.6-3.4c0.1-2.3-1.6-3.5-3.9-4l-3.1-0.8
			c-5.3-1.4-6.1-4.4-6.1-6.6c0-4.2,3.8-7,8.1-7c3.7,0,6.2,1.5,7.4,4.6c0.4,0.9-0.1,2-1,2.3c-1.1,0.4-1.9-0.1-2.4-1.1
			c-1.1-1.9-2.7-2.2-4.1-2.2c-2.2,0-4.2,1.4-4.2,3.4c0,1,0.4,2.5,3.3,3.2l3.1,0.8c5,1.3,7,4.1,6.6,7.6c-0.4,3.9-3.7,6.6-8.4,6.6
			c-4.1,0-7.2-2.3-8.3-5.2C339.7,74.5,340.2,73.3,341.2,73.1z"/>
		<path class="st0" d="M365.1,78.6c0,1-0.9,1.9-2,1.9c-1,0-1.8-0.9-1.8-1.9V57.5c0-1,0.8-1.9,1.8-1.9c1.1,0,2,0.9,2,1.9V78.6z"/>
		<path class="st0" d="M370.6,59.3c-1,0-1.8-0.7-1.8-1.7c0-1,0.8-1.8,1.8-1.8h15.1c1,0,1.8,0.8,1.8,1.8c0,1-0.8,1.7-1.8,1.7h-5.7
			v19.3c0,1-0.9,1.9-2,1.9c-1,0-1.8-0.9-1.8-1.9V59.3H370.6z"/>
		<path class="st0" d="M405,56.5c0.6-0.9,1.7-1.1,2.6-0.6c0.8,0.5,1,1.7,0.5,2.6l-7.5,10.6v9.5c0,1-0.9,1.9-2,1.9
			c-1,0-1.8-0.9-1.8-1.9v-9.5l-7.5-10.6c-0.6-0.9-0.4-2.1,0.5-2.6c0.9-0.5,2.1-0.3,2.6,0.6l6.3,9L405,56.5z"/>
	</g>
</g>
<g id="Ebene_2">
</g>
</svg>
